<svg xmlns="http://www.w3.org/2000/svg" width="760" height="900" viewBox="0 0 760 900" role="img" aria-label="Treino como cuidado com a saude">
  <defs>
    <linearGradient id="bg" x1="0" y1="0" x2="1" y2="1">
      <stop offset="0" stop-color="#171717"/>
      <stop offset="1" stop-color="#0A0A0A"/>
    </linearGradient>
    <radialGradient id="glow" cx="0.82" cy="0.12" r="0.95">
      <stop offset="0" stop-color="#E10600" stop-opacity="0.28"/>
      <stop offset="0.55" stop-color="#E10600" stop-opacity="0"/>
    </radialGradient>
    <pattern id="grid" width="44" height="44" patternUnits="userSpaceOnUse">
      <path d="M44 0H0V44" fill="none" stroke="#ffffff" stroke-opacity="0.045" stroke-width="1"/>
    </pattern>
    
  </defs>
  <rect width="100%" height="100%" fill="url(#bg)"/>
  <rect width="100%" height="100%" fill="url(#grid)"/>
  <rect width="100%" height="100%" fill="url(#glow)"/>
  <path d="M0 450 L212.8 450 L258.40000000000003 380 L304 560 L357.2 300 L410.40000000000003 510 L456 450 L760 450" fill="none" stroke="#E10600" stroke-width="6" stroke-linejoin="round" stroke-linecap="round" opacity="0.9"/>
  <path d="M0 450 L212.8 450 L258.40000000000003 380 L304 560 L357.2 300 L410.40000000000003 510 L456 450 L760 450" fill="none" stroke="#E10600" stroke-width="16" stroke-linejoin="round" stroke-linecap="round" opacity="0.15"/>
  <g opacity="0.1" fill="#E10600" transform="translate(270 563.8)">
    <rect x="0" y="20" width="30" height="60" rx="7"/>
    <rect x="30" y="32" width="20" height="36" rx="5"/>
    <rect x="50" y="44" width="120" height="12" rx="6"/>
    <rect x="170" y="32" width="20" height="36" rx="5"/>
    <rect x="190" y="20" width="30" height="60" rx="7"/>
  </g>
  <rect x="0" y="0" width="6" height="900" fill="#E10600"/>
  <text x="40" y="840" font-family="Arial, Helvetica, sans-serif" font-size="40" font-weight="800" fill="#FFFFFF" letter-spacing="1.5">SAÚDE EM MOVIMENTO</text>
  <text x="42" y="868" font-family="Arial, Helvetica, sans-serif" font-size="16" fill="#B3B3B3">Foto ilustrativa — substituir pela imagem real</text>
</svg>