<?xml version="1.0" encoding="UTF-8"?>
<!-- PLACEHOLDER "DEPOIS". Substituir pela foto real (resultado após pintura). -->
<svg width="800" height="600" viewBox="0 0 800 600" xmlns="http://www.w3.org/2000/svg" role="img" aria-label="Depois - imagem ilustrativa">
  <defs>
    <linearGradient id="d" x1="0" y1="0" x2="800" y2="600" gradientUnits="userSpaceOnUse">
      <stop offset="0" stop-color="#1E78C8"/>
      <stop offset="1" stop-color="#0A2540"/>
    </linearGradient>
  </defs>
  <rect width="800" height="600" fill="url(#d)"/>
  <g transform="translate(190,250)">
    <path d="M20 120c0-10 8-18 18-18h6l24-58c5-12 16-20 29-20h150c13 0 25 8 31 19l30 59h8c10 0 18 8 18 18v40H20z" fill="#2E9BE6"/>
    <path d="M70 60c5-12 16-20 29-20h150c13 0 25 8 31 19l20 40H60z" fill="#FFFFFF" opacity="0.22"/>
    <circle cx="110" cy="170" r="34" fill="#0A2540"/>
    <circle cx="110" cy="170" r="18" fill="#cfe6fb"/>
    <circle cx="320" cy="170" r="34" fill="#0A2540"/>
    <circle cx="320" cy="170" r="18" fill="#cfe6fb"/>
  </g>
  <!-- brilho metálico -->
  <path d="M250 300 l140 -40" stroke="#FFFFFF" stroke-width="10" opacity="0.4" fill="none" stroke-linecap="round"/>
  <text x="400" y="470" font-family="Segoe UI, Arial, sans-serif" font-size="40" font-weight="800" fill="#FFFFFF" text-anchor="middle">DEPOIS</text>
  <text x="400" y="510" font-family="Segoe UI, Arial, sans-serif" font-size="20" fill="#bfe0fb" text-anchor="middle">Substituir pela foto real</text>
</svg>
