<?xml version="1.0" encoding="UTF-8"?>
<!--
  Ilustração do HERO (carro com brilho metálico). Placeholder vetorial.
  Opcional: trocar por uma FOTO real de cabine de pintura / carro recém-pintado.
-->
<svg width="760" height="520" viewBox="0 0 760 520" fill="none" xmlns="http://www.w3.org/2000/svg" role="img" aria-label="Carro com pintura nova e acabamento brilhante">
  <defs>
    <linearGradient id="body" x1="120" y1="150" x2="640" y2="380" gradientUnits="userSpaceOnUse">
      <stop offset="0" stop-color="#2E9BE6"/>
      <stop offset="0.5" stop-color="#1E78C8"/>
      <stop offset="1" stop-color="#0A2540"/>
    </linearGradient>
    <radialGradient id="floor" cx="380" cy="430" r="320" gradientUnits="userSpaceOnUse">
      <stop offset="0" stop-color="#1E78C8" stop-opacity="0.35"/>
      <stop offset="1" stop-color="#0A2540" stop-opacity="0"/>
    </radialGradient>
  </defs>

  <ellipse cx="380" cy="440" rx="320" ry="48" fill="url(#floor)"/>

  <!-- Corpo do carro -->
  <g>
    <path d="M120 360c-14 0-24-10-24-24v-26c0-12 8-22 20-24l48-9 70-86c16-20 40-31 66-31h158c30 0 58 15 75 39l52 74 52 12c14 3 23 15 23 29v22c0 11-9 24-22 24z" fill="url(#body)"/>
    <!-- Vidros -->
    <path d="M256 196c10-13 25-20 41-20h126c20 0 39 10 50 27l30 44H214z" fill="#cfe6fb" opacity="0.85"/>
    <path d="M300 184h60v63h-95z" fill="#0A2540" opacity="0.18"/>
    <!-- Reflexo / brilho metálico -->
    <path d="M150 318l360-70" stroke="#FFFFFF" stroke-width="10" opacity="0.45" stroke-linecap="round"/>
    <path d="M150 340l320-58" stroke="#FFFFFF" stroke-width="4" opacity="0.25" stroke-linecap="round"/>
    <!-- Faróis -->
    <rect x="612" y="300" width="40" height="20" rx="8" fill="#FFE9A8"/>
    <rect x="108" y="306" width="26" height="16" rx="6" fill="#FF6B2C" opacity="0.9"/>
  </g>

  <!-- Rodas -->
  <g>
    <circle cx="228" cy="366" r="56" fill="#16181b"/>
    <circle cx="228" cy="366" r="30" fill="#6B7280"/>
    <circle cx="228" cy="366" r="12" fill="#cfe6fb"/>
    <circle cx="540" cy="366" r="56" fill="#16181b"/>
    <circle cx="540" cy="366" r="30" fill="#6B7280"/>
    <circle cx="540" cy="366" r="12" fill="#cfe6fb"/>
  </g>

  <!-- Respingos de tinta (marca) -->
  <circle cx="690" cy="120" r="12" fill="#2E9BE6"/>
  <circle cx="722" cy="150" r="6" fill="#1E78C8"/>
  <circle cx="66" cy="150" r="9" fill="#1E78C8"/>
  <circle cx="40" cy="186" r="5" fill="#FF6B2C"/>
</svg>
