<svg xmlns="http://www.w3.org/2000/svg" viewBox="0 0 64 64" role="img" aria-labelledby="title desc">
  <title id="title">Servicos Tech</title>
  <desc id="desc">Marca abstrata da Servicos Tech com monograma tecnologico.</desc>
  <defs>
    <linearGradient id="markGradient" x1="10" y1="8" x2="56" y2="58" gradientUnits="userSpaceOnUse">
      <stop offset="0" stop-color="#60A5FA" />
      <stop offset="0.48" stop-color="#2563EB" />
      <stop offset="1" stop-color="#1D4ED8" />
    </linearGradient>
    <linearGradient id="shineGradient" x1="16" y1="12" x2="48" y2="52" gradientUnits="userSpaceOnUse">
      <stop offset="0" stop-color="#FFFFFF" stop-opacity="0.92" />
      <stop offset="1" stop-color="#DBEAFE" stop-opacity="0.74" />
    </linearGradient>
    <filter id="softShadow" x="-20%" y="-20%" width="140%" height="140%">
      <feDropShadow dx="0" dy="8" stdDeviation="6" flood-color="#1E3A8A" flood-opacity="0.22" />
    </filter>
  </defs>
  <rect width="64" height="64" rx="18" fill="url(#markGradient)" />
  <path d="M15 45.5V18.5C15 16.6 16.6 15 18.5 15H45.5C47.4 15 49 16.6 49 18.5V45.5C49 47.4 47.4 49 45.5 49H18.5C16.6 49 15 47.4 15 45.5Z" fill="none" stroke="#BFDBFE" stroke-opacity="0.34" stroke-width="2" />
  <g filter="url(#softShadow)">
    <path d="M43.5 19.5H28.8C23.7 19.5 20.2 22.4 20.2 26.4C20.2 30.4 23.4 32.1 29.2 33.1C35.3 34.2 38.4 35.7 38.4 39.6C38.4 43.5 34.9 46 29.6 46H20.4" fill="none" stroke="url(#shineGradient)" stroke-width="6" stroke-linecap="round" stroke-linejoin="round" />
    <path d="M29.5 19.5H47.5" fill="none" stroke="#FFFFFF" stroke-width="6" stroke-linecap="round" />
    <path d="M38.5 19.5V46" fill="none" stroke="#FFFFFF" stroke-width="6" stroke-linecap="round" />
  </g>
  <circle cx="18" cy="18" r="2.3" fill="#FFFFFF" fill-opacity="0.86" />
  <circle cx="46" cy="46" r="2.3" fill="#FFFFFF" fill-opacity="0.78" />
</svg>
