<svg xmlns="http://www.w3.org/2000/svg" width="1920" height="1080" viewBox="0 0 1920 1080" role="img" aria-label="Treino na Academia Romanos">
  <defs>
    <linearGradient id="bg" x1="0" y1="0" x2="1" y2="1">
      <stop offset="0" stop-color="#171717"/>
      <stop offset="1" stop-color="#0A0A0A"/>
    </linearGradient>
    <radialGradient id="glow" cx="0.82" cy="0.12" r="0.95">
      <stop offset="0" stop-color="#E10600" stop-opacity="0.28"/>
      <stop offset="0.55" stop-color="#E10600" stop-opacity="0"/>
    </radialGradient>
    <pattern id="grid" width="44" height="44" patternUnits="userSpaceOnUse">
      <path d="M44 0H0V44" fill="none" stroke="#ffffff" stroke-opacity="0.045" stroke-width="1"/>
    </pattern>
    <radialGradient id="vig" cx="0.5" cy="0.5" r="0.75">
      <stop offset="0.55" stop-color="#000000" stop-opacity="0"/>
      <stop offset="1" stop-color="#000000" stop-opacity="0.75"/>
    </radialGradient>
  </defs>
  <rect width="100%" height="100%" fill="url(#bg)"/>
  <rect width="100%" height="100%" fill="url(#grid)"/>
  <g opacity="0.6"><rect width="100%" height="100%" fill="url(#glow)"/></g>
  <g stroke="#E10600" stroke-opacity="0.10" stroke-width="2">
    <line x1="-100" y1="200" x2="900" y2="1180"/>
    <line x1="200" y1="-100" x2="1400" y2="1180"/>
    <line x1="700" y1="-100" x2="2020" y2="1100"/>
  </g>
  <g opacity="0.06" fill="#E10600" transform="translate(850 425.2)">
    <rect x="0" y="20" width="30" height="60" rx="7"/>
    <rect x="30" y="32" width="20" height="36" rx="5"/>
    <rect x="50" y="44" width="120" height="12" rx="6"/>
    <rect x="170" y="32" width="20" height="36" rx="5"/>
    <rect x="190" y="20" width="30" height="60" rx="7"/>
  </g>
  <rect width="100%" height="100%" fill="url(#vig)"/>
</svg>